{"asset":{"generator":"3D Builder","version":"2.0"},"scene":0,"scenes":[{"nodes":[0]}],"nodes":[{"children":[1,2,3,4,5,6,7,8]},{"mesh":0,"matrix":[2.1621167659759521,0,0,0,0,-2.57744403597826E-7,-2.162116527557373,0,0,2.162116527557373,-2.57744403597826E-7,0,-21.641918182373047,2.9295890331268311,-21.753137588500977,1]},{"mesh":1,"matrix":[2.1621167659759521,0,0,0,0,-2.57744403597826E-7,-2.162116527557373,0,0,2.162116527557373,-2.57744403597826E-7,0,-21.641918182373047,2.9295890331268311,-21.753137588500977,1]},{"mesh":2,"matrix":[2.1621167659759521,0,0,0,0,-2.57744403597826E-7,-2.162116527557373,0,0,2.162116527557373,-2.57744403597826E-7,0,-21.641918182373047,2.9295890331268311,-21.753137588500977,1]},{"mesh":3,"matrix":[2.1621167659759521,0,0,0,0,-2.57744403597826E-7,-2.162116527557373,0,0,2.162116527557373,-2.57744403597826E-7,0,-21.641918182373047,2.9295890331268311,-21.753137588500977,1]},{"mesh":4,"matrix":[2.1621167659759521,0,0,0,0,-2.57744403597826E-7,-2.162116527557373,0,0,2.162116527557373,-2.57744403597826E-7,0,-21.641918182373047,2.9295890331268311,-21.753137588500977,1]},{"mesh":5,"matrix":[2.1621167659759521,0,0,0,0,-2.57744403597826E-7,-2.162116527557373,0,0,2.162116527557373,-2.57744403597826E-7,0,-21.641918182373047,2.9295890331268311,-21.753137588500977,1]},{"mesh":6,"matrix":[2.1621167659759521,0,0,0,0,-2.57744403597826E-7,-2.162116527557373,0,0,2.162116527557373,-2.57744403597826E-7,0,-21.641918182373047,2.9295890331268311,-21.753137588500977,1]},{"mesh":7,"matrix":[2.1621167659759521,0,0,0,0,-2.57744403597826E-7,-2.162116527557373,0,0,2.162116527557373,-2.57744403597826E-7,0,-21.641918182373047,2.9295890331268311,-21.753137588500977,1]}],"meshes":[{"primitives":[{"attributes":{"POSITION":0,"TEXCOORD_0":2},"mode":4,"indices":4,"material":0},{"attributes":{"POSITION":1,"COLOR_0":3},"mode":4,"indices":5}]},{"primitives":[{"attributes":{"POSITION":6,"TEXCOORD_0":8},"mode":4,"indices":10,"material":0},{"attributes":{"POSITION":7,"COLOR_0":9},"mode":4,"indices":11}]},{"primitives":[{"attributes":{"POSITION":12,"TEXCOORD_0":14},"mode":4,"indices":16,"material":0},{"attributes":{"POSITION":13,"COLOR_0":15},"mode":4,"indices":17}]},{"primitives":[{"attributes":{"POSITION":18,"TEXCOORD_0":20},"mode":4,"indices":22,"material":0},{"attributes":{"POSITION":19,"COLOR_0":21},"mode":4,"indices":23}]},{"primitives":[{"attributes":{"POSITION":24,"TEXCOORD_0":26},"mode":4,"indices":28,"material":0},{"attributes":{"POSITION":25,"COLOR_0":27},"mode":4,"indices":29}]},{"primitives":[{"attributes":{"POSITION":30,"TEXCOORD_0":32},"mode":4,"indices":34,"material":0},{"attributes":{"POSITION":31,"COLOR_0":33},"mode":4,"indices":35}]},{"primitives":[{"attributes":{"POSITION":36,"TEXCOORD_0":38},"mode":4,"indices":40,"material":0},{"attributes":{"POSITION":37,"COLOR_0":39},"mode":4,"indices":41}]},{"primitives":[{"attributes":{"POSITION":42,"TEXCOORD_0":44},"mode":4,"indices":46,"material":0},{"attributes":{"POSITION":43,"COLOR_0":45},"mode":4,"indices":47}]}],"materials":[{"pbrMetallicRoughness":{"baseColorFactor":[1,1,1,1],"metallicFactor":0,"roughnessFactor":1,"baseColorTexture":{"index":0,"texCoord":0}},"alphaMode":"OPAQUE"}],"textures":[{"source":0,"sampler":0}],"images":[{"uri":"Rubbish Base.jpeg"}],"samplers":[{"magFilter":9729,"wrapS":33071,"wrapT":33071}],"accessors":[{"bufferView":0,"byteOffset":0,"count":1982,"componentType":5126,"type":"VEC3","min":[9.2777795791625977,-9.83802318572998,-1.3549646139144897],"max":[9.7450675964355469,-9.3871688842773437,-1.0099815130233765]},{"bufferView":0,"byteOffset":23784,"count":61,"componentType":5126,"type":"VEC3","min":[9.3463134765625,-9.83802318572998,-1.3549646139144897],"max":[9.724797248840332,-9.45003604888916,-1.3549646139144897]},{"bufferView":1,"byteOffset":0,"count":1982,"componentType":5126,"type":"VEC2"},{"bufferView":2,"byteOffset":0,"count":61,"componentType":5121,"type":"VEC4","normalized":true},{"bufferView":3,"byteOffset":0,"count":7656,"componentType":5125,"type":"SCALAR"},{"bufferView":3,"byteOffset":30624,"count":156,"componentType":5125,"type":"SCALAR"},{"bufferView":4,"byteOffset":0,"count":7724,"componentType":5126,"type":"VEC3","min":[9.2838048934936523,-9.715184211730957,-1.3549646139144897],"max":[9.7241935729980469,-9.3545513153076172,-1.0058668851852417]},{"bufferView":4,"byteOffset":92688,"count":59,"componentType":5126,"type":"VEC3","min":[9.47764778137207,-9.5566129684448242,-1.3549646139144897],"max":[9.6777544021606445,-9.4258565902709961,-1.3549646139144897]},{"bufferView":5,"byteOffset":0,"count":7724,"componentType":5126,"type":"VEC2"},{"bufferView":6,"byteOffset":0,"count":59,"componentType":5121,"type":"VEC4","normalized":true},{"bufferView":7,"byteOffset":0,"count":22821,"componentType":5125,"type":"SCALAR"},{"bufferView":7,"byteOffset":91284,"count":171,"componentType":5125,"type":"SCALAR"},{"bufferView":8,"byteOffset":0,"count":19691,"componentType":5126,"type":"VEC3","min":[9.3636569976806641,-10.570721626281738,-1.3549646139144897],"max":[11.154585838317871,-9.5733823776245117,-0.38836210966110229]},{"bufferView":8,"byteOffset":236292,"count":296,"componentType":5126,"type":"VEC3","min":[9.86664867401123,-10.509967803955078,-1.3549646139144897],"max":[11.07359504699707,-9.5800399780273437,-1.3549646139144897]},{"bufferView":9,"byteOffset":0,"count":19691,"componentType":5126,"type":"VEC2"},{"bufferView":10,"byteOffset":0,"count":296,"componentType":5121,"type":"VEC4","normalized":true},{"bufferView":11,"byteOffset":0,"count":84042,"componentType":5125,"type":"SCALAR"},{"bufferView":11,"byteOffset":336168,"count":870,"componentType":5125,"type":"SCALAR"},{"bufferView":12,"byteOffset":0,"count":16335,"componentType":5126,"type":"VEC3","min":[9.448028564453125,-10.767524719238281,-1.3549646139144897],"max":[11.177267074584961,-9.5678930282592773,-0.38796329498291016]},{"bufferView":12,"byteOffset":196020,"count":438,"componentType":5126,"type":"VEC3","min":[9.67864990234375,-10.751964569091797,-1.3549646139144897],"max":[11.078300476074219,-9.5804967880249023,-1.3549646139144897]},{"bufferView":13,"byteOffset":0,"count":16335,"componentType":5126,"type":"VEC2"},{"bufferView":14,"byteOffset":0,"count":438,"componentType":5121,"type":"VEC4","normalized":true},{"bufferView":15,"byteOffset":0,"count":67734,"componentType":5125,"type":"SCALAR"},{"bufferView":15,"byteOffset":270936,"count":1236,"componentType":5125,"type":"SCALAR"},{"bufferView":16,"byteOffset":0,"count":24008,"componentType":5126,"type":"VEC3","min":[8.8357791900634766,-10.494078636169434,-1.3549646139144897],"max":[10.042898178100586,-9.5438194274902344,-0.38849657773971558]},{"bufferView":16,"byteOffset":288096,"count":295,"componentType":5126,"type":"VEC3","min":[8.9195089340209961,-10.489822387695312,-1.3549646139144897],"max":[10.040596008300781,-9.5587711334228516,-1.3549646139144897]},{"bufferView":17,"byteOffset":0,"count":24008,"componentType":5126,"type":"VEC2"},{"bufferView":18,"byteOffset":0,"count":295,"componentType":5121,"type":"VEC4","normalized":true},{"bufferView":19,"byteOffset":0,"count":99447,"componentType":5125,"type":"SCALAR"},{"bufferView":19,"byteOffset":397788,"count":807,"componentType":5125,"type":"SCALAR"},{"bufferView":20,"byteOffset":0,"count":24765,"componentType":5126,"type":"VEC3","min":[8.8357791900634766,-10.448500633239746,-1.3549646139144897],"max":[10.065018653869629,-9.5560264587402344,-0.389187753200531]},{"bufferView":20,"byteOffset":297180,"count":29,"componentType":5126,"type":"VEC3","min":[8.923731803894043,-10.139615058898926,-1.3549646139144897],"max":[9.0740299224853516,-10.057290077209473,-1.3549646139144897]},{"bufferView":21,"byteOffset":0,"count":24765,"componentType":5126,"type":"VEC2"},{"bufferView":22,"byteOffset":0,"count":29,"componentType":5121,"type":"VEC4","normalized":true},{"bufferView":23,"byteOffset":0,"count":86019,"componentType":5125,"type":"SCALAR"},{"bufferView":23,"byteOffset":344076,"count":78,"componentType":5125,"type":"SCALAR"},{"bufferView":24,"byteOffset":0,"count":37437,"componentType":5126,"type":"VEC3","min":[8.8720483779907227,-10.767524719238281,-1.3549646139144897],"max":[11.183416366577148,-9.5786123275756836,-0.38158798217773438]},{"bufferView":24,"byteOffset":449244,"count":274,"componentType":5126,"type":"VEC3","min":[8.9195089340209961,-10.693742752075195,-1.3549646139144897],"max":[11.072657585144043,-9.66328239440918,-1.3549646139144897]},{"bufferView":25,"byteOffset":0,"count":37437,"componentType":5126,"type":"VEC2"},{"bufferView":26,"byteOffset":0,"count":274,"componentType":5121,"type":"VEC4","normalized":true},{"bufferView":27,"byteOffset":0,"count":114774,"componentType":5125,"type":"SCALAR"},{"bufferView":27,"byteOffset":459096,"count":639,"componentType":5125,"type":"SCALAR"},{"bufferView":28,"byteOffset":0,"count":29422,"componentType":5126,"type":"VEC3","min":[9.81596565246582,-10.758545875549316,-1.3549646139144897],"max":[11.183416366577148,-9.5809640884399414,-0.38344776630401611]},{"bufferView":28,"byteOffset":353064,"count":249,"componentType":5126,"type":"VEC3","min":[10.425051689147949,-10.660994529724121,-1.3549646139144897],"max":[11.049286842346191,-9.8094053268432617,-1.3549646139144897]},{"bufferView":29,"byteOffset":0,"count":29422,"componentType":5126,"type":"VEC2"},{"bufferView":30,"byteOffset":0,"count":249,"componentType":5121,"type":"VEC4","normalized":true},{"bufferView":31,"byteOffset":0,"count":83565,"componentType":5125,"type":"SCALAR"},{"bufferView":31,"byteOffset":334260,"count":693,"componentType":5125,"type":"SCALAR"}],"bufferViews":[{"buffer":0,"byteOffset":0,"byteLength":24516,"byteStride":12,"target":34962},{"buffer":0,"byteOffset":24516,"byteLength":15856,"byteStride":8,"target":34962},{"buffer":0,"byteOffset":40372,"byteLength":244,"byteStride":4,"target":34962},{"buffer":0,"byteOffset":40616,"byteLength":31248,"target":34963},{"buffer":0,"byteOffset":71864,"byteLength":93396,"byteStride":12,"target":34962},{"buffer":0,"byteOffset":165260,"byteLength":61792,"byteStride":8,"target":34962},{"buffer":0,"byteOffset":227052,"byteLength":236,"byteStride":4,"target":34962},{"buffer":0,"byteOffset":227288,"byteLength":91968,"target":34963},{"buffer":0,"byteOffset":319256,"byteLength":239844,"byteStride":12,"target":34962},{"buffer":0,"byteOffset":559100,"byteLength":157528,"byteStride":8,"target":34962},{"buffer":0,"byteOffset":716628,"byteLength":1184,"byteStride":4,"target":34962},{"buffer":0,"byteOffset":717812,"byteLength":339648,"target":34963},{"buffer":0,"byteOffset":1057460,"byteLength":201276,"byteStride":12,"target":34962},{"buffer":0,"byteOffset":1258736,"byteLength":130680,"byteStride":8,"target":34962},{"buffer":0,"byteOffset":1389416,"byteLength":1752,"byteStride":4,"target":34962},{"buffer":0,"byteOffset":1391168,"byteLength":275880,"target":34963},{"buffer":0,"byteOffset":1667048,"byteLength":291636,"byteStride":12,"target":34962},{"buffer":0,"byteOffset":1958684,"byteLength":192064,"byteStride":8,"target":34962},{"buffer":0,"byteOffset":2150748,"byteLength":1180,"byteStride":4,"target":34962},{"buffer":0,"byteOffset":2151928,"byteLength":401016,"target":34963},{"buffer":0,"byteOffset":2552944,"byteLength":297528,"byteStride":12,"target":34962},{"buffer":0,"byteOffset":2850472,"byteLength":198120,"byteStride":8,"target":34962},{"buffer":0,"byteOffset":3048592,"byteLength":116,"byteStride":4,"target":34962},{"buffer":0,"byteOffset":3048708,"byteLength":344388,"target":34963},{"buffer":0,"byteOffset":3393096,"byteLength":452532,"byteStride":12,"target":34962},{"buffer":0,"byteOffset":3845628,"byteLength":299496,"byteStride":8,"target":34962},{"buffer":0,"byteOffset":4145124,"byteLength":1096,"byteStride":4,"target":34962},{"buffer":0,"byteOffset":4146220,"byteLength":461652,"target":34963},{"buffer":0,"byteOffset":4607872,"byteLength":356052,"byteStride":12,"target":34962},{"buffer":0,"byteOffset":4963924,"byteLength":235376,"byteStride":8,"target":34962},{"buffer":0,"byteOffset":5199300,"byteLength":996,"byteStride":4,"target":34962},{"buffer":0,"byteOffset":5200296,"byteLength":337032,"target":34963}],"buffers":[{"byteLength":5537328,"uri":"Rubbish.bin"}]}